<svg width="300" height="255" viewBox="0 0 300 255" xmlns="http://www.w3.org/2000/svg" xmlns:xlink="http://www.w3.org/1999/xlink">
    <defs>
        <linearGradient x1="50.599%" y1="11.445%" x2="50.599%" y2="91.288%" id="0rynd41t9b">
            <stop stop-color="#80DEEA" stop-opacity=".9" offset="0%"/>
            <stop stop-color="#80DEEA" stop-opacity=".8" offset="22%"/>
            <stop stop-color="#80DEEA" stop-opacity=".5" offset="60%"/>
            <stop stop-color="#80DEEA" stop-opacity=".1" offset="87%"/>
            <stop stop-color="#80DEEA" stop-opacity="0" offset="100%"/>
        </linearGradient>
        <linearGradient x1="50.599%" y1="18.434%" x2="50.599%" y2="91.288%" id="nym5hv266d">
            <stop stop-color="#26C6DA" stop-opacity=".8" offset="0%"/>
            <stop stop-color="#26C6DA" stop-opacity=".5" offset="22%"/>
            <stop stop-color="#26C6DA" stop-opacity=".5" offset="60%"/>
            <stop stop-color="#26C6DA" stop-opacity=".1" offset="87%"/>
            <stop stop-color="#26C6DA" stop-opacity="0" offset="100%"/>
        </linearGradient>
        <linearGradient x1="61.433%" y1="0%" x2="44.254%" y2="100%" id="pkpppim87e">
            <stop stop-color="#FFF" offset="0%"/>
            <stop stop-color="#B2EBF2" offset="100%"/>
        </linearGradient>
        <linearGradient x1="0%" y1="23.811%" x2="71.544%" y2="68.309%" id="wv6dvjjjif">
            <stop stop-color="#26C6DA" offset="0%"/>
            <stop stop-color="#26C6DA" stop-opacity=".8" offset="21.195%"/>
            <stop stop-color="#26C6DA" stop-opacity=".5" offset="60%"/>
            <stop stop-color="#80DEEA" stop-opacity="0" offset="100%"/>
        </linearGradient>
        <linearGradient x1="39.315%" y1="44.607%" x2="50%" y2="50%" id="wow2mvog6g">
            <stop stop-color="#26C6DA" stop-opacity=".28" offset="0%"/>
            <stop stop-color="#26C6DA" stop-opacity=".3" offset="100%"/>
        </linearGradient>
        <linearGradient x1="24.873%" y1="0%" x2="24.873%" y2="100%" id="un3neiy5th">
            <stop stop-color="#B2EBF2" offset="0%"/>
            <stop stop-color="#26C6DA" offset="100%"/>
        </linearGradient>
        <linearGradient x1="56.492%" y1="0%" x2="46.738%" y2="100%" id="icin1df5bi">
            <stop stop-color="#FFF" offset="0%"/>
            <stop stop-color="#B2EBF2" offset="100%"/>
        </linearGradient>
        <linearGradient x1="2.583%" y1="19.05%" x2="97.417%" y2="100%" id="boafctddmj">
            <stop stop-color="#FFF" offset="0%"/>
            <stop stop-color="#B2EBF2" offset="100%"/>
        </linearGradient>
        <linearGradient x1="88.907%" y1="0%" x2="30.448%" y2="100%" id="7ibxj20iyk">
            <stop stop-color="#FFF" offset="0%"/>
            <stop stop-color="#B2EBF2" offset="100%"/>
        </linearGradient>
        <linearGradient x1="29.728%" y1="0%" x2="70.4%" y2="100%" id="atvax0rs7l">
            <stop stop-color="#FEB6B3" offset="0%"/>
            <stop stop-color="#FE7062" offset="100%"/>
        </linearGradient>
        <linearGradient x1="29.735%" y1="0%" x2="70.393%" y2="100%" id="626pslz26m">
            <stop stop-color="#FEB6B3" offset="0%"/>
            <stop stop-color="#FE7062" offset="100%"/>
        </linearGradient>
        <linearGradient x1="61.627%" y1="0%" x2="44.157%" y2="100%" id="e23fktsuvn">
            <stop stop-color="#FFF" offset="0%"/>
            <stop stop-color="#B2EBF2" offset="100%"/>
        </linearGradient>
        <linearGradient x1="18.246%" y1="40.704%" x2="100%" y2="86.326%" id="2ovzp2ruco">
            <stop stop-color="#80DEEA" stop-opacity="0" offset="0%"/>
            <stop stop-color="#26C6DA" stop-opacity=".5" offset="40%"/>
            <stop stop-color="#26C6DA" stop-opacity=".8" offset="78.805%"/>
            <stop stop-color="#26C6DA" offset="100%"/>
        </linearGradient>
        <linearGradient x1="49.17%" y1="-33.563%" x2="50%" y2="50%" id="6xzth50jvp">
            <stop stop-color="#26C6DA" stop-opacity=".28" offset="0%"/>
            <stop stop-color="#26C6DA" stop-opacity=".3" offset="100%"/>
        </linearGradient>
        <linearGradient x1="24.873%" y1="0%" x2="24.873%" y2="100%" id="1phnx2xbrq">
            <stop stop-color="#B2EBF2" offset="0%"/>
            <stop stop-color="#26C6DA" offset="100%"/>
        </linearGradient>
        <linearGradient x1="56.603%" y1="0%" x2="46.682%" y2="100%" id="2yqygw6u0r">
            <stop stop-color="#FFF" offset="0%"/>
            <stop stop-color="#B2EBF2" offset="100%"/>
        </linearGradient>
        <linearGradient x1="90.546%" y1="0%" x2="-8.772%" y2="142.55%" id="y4j1ykgdss">
            <stop stop-color="#FFF" offset="0%"/>
            <stop stop-color="#B2EBF2" offset="100%"/>
        </linearGradient>
        <linearGradient x1="100%" y1="33.646%" x2="24.873%" y2="66.354%" id="zweb5j2t3t">
            <stop stop-color="#FFF" offset="0%"/>
            <stop stop-color="#B2EBF2" offset="100%"/>
        </linearGradient>
        <linearGradient x1="43.779%" y1="8.37%" x2="43.779%" y2="74.563%" id="ll4v7wzpdv">
            <stop stop-color="#FFF" offset="0%"/>
            <stop stop-color="#BFCBD1" offset="100%"/>
        </linearGradient>
        <linearGradient x1="18.656%" y1="18.034%" x2="81.479%" y2="90.782%" id="t8sxhweqtz">
            <stop stop-color="#364A5B" offset="0%"/>
            <stop stop-color="#19242E" offset="100%"/>
        </linearGradient>
        <ellipse id="6cggd8ntku" cx="19.768" cy="19.792" rx="14.085" ry="14.032"/>
        <ellipse id="ewhslf50fx" cx="19.768" cy="19.792" rx="14.085" ry="14.032"/>
        <path d="M216.61 212.212c-6.41 6.663-12.143 10.58-16.537 13.537-42.821 28.836-91.773 20.525-106.908 17.684-24.417-4.583-45.029-7.816-62.736-23.95-40.24-36.669-38.283-113.156-7.532-160.537C26.543 53.328 57.242 7.43 106.296.963c1.2-.159 2.094-.248 2.879-.332 7.593-.811 54.621-5.087 92.966 27.313 5.49 4.637 14.323 13.003 22.514 25.762 29.952 46.653 30.047 118.908-8.044 158.506z" id="rni9jxjmwa"/>
    </defs>
    <g fill="none" fill-rule="evenodd">
        <g transform="translate(27.085)">
            <mask id="93xyv67vrc" fill="#fff">
                <use xlink:href="#rni9jxjmwa"/>
            </mask>
            <use fill="#006064" fill-rule="nonzero" xlink:href="#rni9jxjmwa"/>
            <path d="M246.314 28.268c-35.276 23.93-55.794 88.708-113.447 77.027-50.192-10.168-5.765 80.198-85.568 57.36-22.418-6.415-37.334-4.523-47.29 1.554v79.868h246.305V28.267z" fill="url(#0rynd41t9b)" fill-rule="nonzero" mask="url(#93xyv67vrc)"/>
            <path d="M246.314 117.43c-11.926 38.86-20.886 80.475-55.172 63.098-70.444-35.746-59.606-.993-101.97-.993-42.365 0-29.557 17.873-62.07 11.916-14-2.567-22.24 1.683-27.093 7.352v45.274h246.305V117.43z" fill="url(#nym5hv266d)" fill-rule="nonzero" mask="url(#93xyv67vrc)"/>
        </g>
        <g transform="translate(38.424 10.236)" fill-rule="nonzero">
            <path d="M18.407 35.951c-.526-5.4-6.572-6.814-10.54-3.986-2.205 1.57-3.51 3.978-4.452 6.481a56.039 56.039 0 0 0-2.73 10.218c-.976 5.623-1.467 12.73 2.5 17.376 2.943 3.429 8.6 4.38 11.872.857 1.145-1.226-.678-3.077-1.831-1.851-2.748 2.931-7.174 1.02-8.946-2.015-2.196-3.746-1.866-8.778-1.221-12.91a45.343 45.343 0 0 1 3.392-12.3 8.438 8.438 0 0 1 4.24-4.467c2.043-.814 4.909 0 5.155 2.572.16 1.663 2.756 1.671 2.595 0l-.034.025z" fill="url(#pkpppim87e)" transform="translate(118.227 113.694)"/>
            <path d="M60.779 78.153s42.397 48.287 43.313 48.218c.916-.068 20.995 9.601 28.83-7.14v-3.506L63.34 75.624" fill="url(#wv6dvjjjif)" transform="translate(118.227 113.694)"/>
            <path d="M143.35 126.322c-.048 2.778-8.95 4.895-19.894 4.74-10.944-.154-19.761-2.571-19.714-5.306.047-2.734 8.95-4.894 19.893-4.74 10.944.154 19.762 2.537 19.715 5.306z" fill="url(#wow2mvog6g)" transform="translate(118.227 113.694)"/>
            <path d="M34.306 108.293s5.444-14.685 4.307-17.642c-.932-2.426-4.816-16.227-6.181-21.14l-16.035 3.833c.806 3.317 3.773 15.112 5.656 16.647 2.188 1.783 1.535 4.706 1.535 4.706s-1.196 23.36 1.696 24.5c2.891 1.14 20.757 1.508 19.426-4.167-1.331-5.674-10.404-6.737-10.404-6.737z" fill="url(#un3neiy5th)" transform="translate(118.227 113.694)"/>
            <path d="M15.549 29.625s-7.343 6.695-6.478 14.11c.865 7.415-3.019 27.491 2.162 28.803 5.181 1.311 9.93 2.623 9.93 2.623s0 15.704 1.695 17.89c1 1.4 1.166 3.24.433 4.8 0 0-6.47 21.817-3.884 23.566 2.586 1.748 19.86 6.103 19.86.437 0-5.666-8.65-8.701-8.65-8.701s8.632-12.653 8.2-15.704c-.433-3.052-1.298-23.145-1.298-23.145s4.749-2.623 5.181-10.476c.433-7.852-5.18-33.603-5.18-33.603" fill="url(#icin1df5bi)" transform="translate(118.227 113.694)"/>
            <path d="M32.402 11.658c3.723 10.633-1.88 20.068-11.154 22.156C10.095 36.32 3.147 31.544.661 20.911-4.862-2.652 25.827-7.1 32.401 11.658z" fill="url(#boafctddmj)" transform="translate(127.625 113.694)"/>
            <path d="M147.095 135.458a10.989 10.989 0 0 0 6.188 10c6.537-3.309 11.256-9.291 8.4-17.3a17.95 17.95 0 0 0-1.603-3.337 10.041 10.041 0 0 0-2.499-.314c-5.907.143-10.59 5.034-10.486 10.951z" fill="#FFF"/>
            <path fill="#80DEEA" d="m164.378 181.868 13.38 3.926 2.163-3.051 4.749 4.363-5.614 8.29-5.18-2.178v-5.238l-4.317-2.186"/>
            <path d="M27.997 37.014c.848-.402 9.963 13.065 11.405 14.35 2.366 2.118 5.444 6.095 7.284 8.513 2.026 2.657 4.18 5.374 5.935 8.135 1.696-.858 2.052.351 2.74 1.714a14.073 14.073 0 0 1 1.958 5.666c.07.82-.123 1.64-.551 2.34-.594.858-5.393 1.2-6.52.978-2.002-.395-1.934-1.226-2.816-2.89-2.01-3.77-4.342-5.648-7.759-8.211-5.087-3.832-16.45-12.096-18.587-18.61-1.831-5.684.551-9.036 6.91-11.985z" fill="url(#7ibxj20iyk)" transform="translate(118.227 113.694)"/>
            <circle fill="#98F3FF" cx="24.138" cy="46.669" r="1"/>
            <ellipse fill="#98F3FF" cx="88.67" cy="19.859" rx="1.478" ry="1.489"/>
            <circle fill="#98F3FF" cx="171.921" cy="41.704" r="1"/>
            <circle fill="#98F3FF" cx="162.315" cy="5.213" r="1"/>
            <ellipse fill="#98F3FF" cx="64.778" cy="56.847" rx="1.232" ry="1.241"/>
            <circle fill="#98F3FF" cx="125.123" cy=".496" r="1"/>
            <circle fill="#98F3FF" cx="191.133" cy="31.775" r="1"/>
            <ellipse fill="#98F3FF" cx="220.936" cy="78.196" rx="1.724" ry="1.738"/>
            <ellipse fill="#98F3FF" cx="205.172" cy="170.541" rx="1.724" ry="1.738"/>
            <ellipse fill="#98F3FF" cx="176.601" cy="70.252" rx="1.232" ry="1.241"/>
            <ellipse fill="#98F3FF" cx="96.305" cy="212.245" rx="1.232" ry="1.241"/>
            <ellipse fill="#98F3FF" cx="54.433" cy="90.608" rx="1.232" ry="1.241"/>
            <circle fill="#98F3FF" cx="104.926" cy="71.99" r="1"/>
            <circle fill="#98F3FF" cx="209.113" cy="110.963" r="1"/>
            <circle fill="#98F3FF" cx="155.665" cy="98.303" r="1"/>
            <circle fill="#98F3FF" cx="91.133" cy="112.204" r="1"/>
            <circle fill="#98F3FF" cx="46.305" cy="213.983" r="1"/>
            <circle fill="#98F3FF" cx=".493" cy="88.87" r="1"/>
            <circle fill="#98F3FF" cx="64.286" cy="178.484" r="1"/>
            <circle fill="#98F3FF" cx="172.66" cy="151.675" r="1"/>
            <circle fill="#98F3FF" cx="104.68" cy="153.164" r="1"/>
        </g>
        <path d="M186.64 110.236c-6.995 0-9.793-2.824-9.793-9.006V82.19c0-1.355.591-1.95 1.936-1.95h8.345c1.345 0 1.936.595 1.936 1.95v14.865c0 1.137.645 1.842 1.67 1.842h5.005V82.19c0-1.355.591-1.95 1.936-1.95h8.29c1.345 0 1.936.595 1.936 1.95v35.151c0 1.355-.59 1.951-1.935 1.951h-8.291c-1.345 0-1.936-.596-1.936-1.95v-7.106h-9.099z" fill="url(#atvax0rs7l)" fill-rule="nonzero"/>
        <path d="M100.433 110.236c-6.995 0-9.793-2.824-9.793-9.006V82.19c0-1.355.592-1.95 1.936-1.95h8.34c1.345 0 1.941.595 1.941 1.95v14.865c0 1.137.645 1.842 1.665 1.842h5.005V82.19c0-1.355.596-1.95 1.941-1.95h8.286c1.345 0 1.936.595 1.936 1.95v35.151c0 1.355-.591 1.951-1.936 1.951h-8.286c-1.345 0-1.94-.596-1.94-1.95v-7.106h-9.095z" fill="url(#626pslz26m)" fill-rule="nonzero"/>
        <g fill-rule="nonzero">
            <path d="M91.585 55.708c.42-4.316 5.287-5.446 8.48-3.186a10.808 10.808 0 0 1 3.593 5.185 45.558 45.558 0 0 1 2.196 8.164c.782 4.494 1.182 10.164-2.02 13.882-2.364 2.746-6.915 3.503-9.55.72-.93-.982.55-2.458 1.48-1.486 2.207 2.344 5.771.822 7.205-1.607 1.76-2.99 1.498-7.015.93-10.276a35.86 35.86 0 0 0-2.727-9.827 6.743 6.743 0 0 0-3.388-3.568c-1.647-.654-3.965 0-4.16 2.036-.13 1.327-2.216 1.336-2.085 0l.046-.037z" fill="url(#e23fktsuvn)" transform="translate(0 74.778)"/>
            <path d="M53.34 46.656S5.44 30.738 5.254 29.98c-.187-.756-11.365-19-.54-29.052L7.358.09l47.275 43.998" fill="url(#2ovzp2ruco)" transform="translate(0 74.778)"/>
            <path d="M3.876.01C1.68.282.628 7.382 1.531 15.88c.903 8.5 3.397 15.156 5.585 14.885 2.187-.272 3.248-7.382 2.345-15.872S6.073-.292 3.876.01z" fill="url(#6xzth50jvp)" transform="translate(0 74.778)"/>
            <path d="M78.787 113.513s-4.375-11.733-3.463-14.096c.745-1.934 3.872-12.966 4.98-16.89l12.9 3.064c-.641 2.644-3.033 12.079-4.55 13.302a3.988 3.988 0 0 0-1.239 3.737s.931 18.683-1.396 19.617c-2.327.934-16.754 1.205-15.637-3.335 1.117-4.54 8.405-5.4 8.405-5.4z" fill="url(#1phnx2xbrq)" transform="translate(0 74.778)"/>
            <path d="M93.922 50.654s5.91 5.353 5.212 11.275c-.698 5.923 2.43 21.971-1.74 23.018-4.17 1.046-7.987 2.092-7.987 2.092s0 12.555-1.396 14.293a3.804 3.804 0 0 0-.344 3.839s5.212 17.44 3.127 18.832c-2.085 1.392-15.982 4.886-15.982.346s6.944-6.969 6.944-6.969-6.944-10.117-6.6-12.555c.345-2.438 1.043-18.487 1.043-18.487s-3.816-2.092-4.17-8.407c-.353-6.315 4.17-26.847 4.17-26.847" fill="url(#2yqygw6u0r)" transform="translate(0 74.778)"/>
            <path d="M1.716 9.032c-2.933 8.225 1.47 15.53 8.768 17.14 8.768 1.917 14.231-1.754 16.237-9.99C31.009-2.05 6.883-5.5 1.716 9.033z" fill="url(#y4j1ykgdss)" transform="rotate(35 -113.84 176.998)"/>
            <path d="M80.733 118.102a8.41 8.41 0 0 1-8.243 3.545c-2.633-4.922-2.95-10.733 2.338-14.488a12.865 12.865 0 0 1 2.461-1.39c.59.22 1.148.512 1.665.87a8.15 8.15 0 0 1 3.272 5.353 8.209 8.209 0 0 1-1.493 6.11z" fill="#FFF"/>
            <path fill="#80DEEA" d="m64.462 130.308-6.218-9.37 1.797-2.4-4.459-2.606-4.942 6.315 2.904 3.465 3.984-1.252 2.699 2.803"/>
            <path d="M92.516 62.041c.093-.775-12.333-4.54-13.655-5.343a56.197 56.197 0 0 0-8.228-3.568c-2.504-.935-5.091-1.934-7.623-2.653.223-1.476-.754-1.495-1.945-1.71a11 11 0 0 0-4.775-.14 2.995 2.995 0 0 0-1.638.934c-.512.673.39 4.447.828 5.26.782 1.457 1.396 1.195 2.876 1.475 3.351.645 5.343 2 8.117 4.008 4.142 3.017 13.161 9.78 18.615 9.864 4.757.122 6.73-2.522 7.428-8.127z" fill="url(#zweb5j2t3t)" transform="translate(0 74.778)"/>
        </g>
        <g transform="translate(129.493 79.81)">
            <mask id="49jr6hg9tw" fill="#fff">
                <use xlink:href="#6cggd8ntku" transform="rotate(-39.19 19.768 19.792)"/>
            </mask>
            <ellipse fill="url(#ll4v7wzpdv)" mask="url(#49jr6hg9tw)" transform="rotate(-39.19 19.768 19.792)" cx="19.768" cy="19.792" rx="14.085" ry="14.032"/>
            <g mask="url(#49jr6hg9tw)">
                <g transform="translate(0 -1.342)">
                    <mask id="ayjod5mjsy" fill="#fff">
                        <use xlink:href="#ewhslf50fx" transform="rotate(-39.19 19.768 19.792)"/>
                    </mask>
                    <path d="M25.325 12.021a.294.294 0 0 1-.047-.295.307.307 0 0 1 .52-.081 34.913 34.913 0 0 1 3.18 4.533 44.191 44.191 0 0 1 2.362 4.635c.044.098.031.21-.033.297a.307.307 0 0 1-.524-.058 43.266 43.266 0 0 0-2.322-4.572 34.13 34.13 0 0 0-3.136-4.459zM7.813 15.9a.292.292 0 0 1 .074-.288.306.306 0 0 1 .29-.08.3.3 0 0 1 .217.205 13.565 13.565 0 0 0 1.42 3.28c.575.946 1.23 1.845 1.956 2.686.07.082.09.194.052.294a.307.307 0 0 1-.519.088 20.38 20.38 0 0 1-2.015-2.77 14.103 14.103 0 0 1-1.475-3.418v.003zm7.61 12.55a.295.295 0 0 1 .064-.293.308.308 0 0 1 .516.11c.354 1.098.841 2.15 1.452 3.134a11.48 11.48 0 0 0 1.913 2.307.296.296 0 0 1-.121.505.31.31 0 0 1-.297-.069 12.076 12.076 0 0 1-2.012-2.427 14.768 14.768 0 0 1-1.518-3.27l.003.002zm4.999-16.037a.31.31 0 0 1 .43-.043c.13.104.15.293.043.421a24.189 24.189 0 0 0-2.57 3.77 26.6 26.6 0 0 0-1.79 4.02.286.286 0 0 1-.152.176.295.295 0 0 1-.235.009.3.3 0 0 1-.188-.382 26.962 26.962 0 0 1 1.831-4.108 24.843 24.843 0 0 1 2.63-3.863zm12.03 9.116a.308.308 0 0 1-.301-.034.296.296 0 0 1 .06-.513 6.715 6.715 0 0 0 1.64-1.048 14.359 14.359 0 0 0 1.63-1.627c.108-.125.3-.14.428-.033a.294.294 0 0 1 .033.42 14.8 14.8 0 0 1-1.695 1.693 7.306 7.306 0 0 1-1.786 1.14l-.009.002zm-20.888 4.416a.308.308 0 0 1 .388.19.3.3 0 0 1-.193.38c-.613.21-1.203.48-1.762.803-.66.385-1.287.82-1.876 1.302a.312.312 0 0 1-.43-.043.282.282 0 0 1 .032-.424c.615-.501 1.27-.954 1.957-1.353a10.34 10.34 0 0 1 1.876-.855h.008zm14.708-15.1a.305.305 0 0 1-.3-.023.293.293 0 0 1 .041-.51c.39-.199.722-.493.964-.854.343-.488.634-1.01.871-1.555a.306.306 0 0 1 .523-.054.293.293 0 0 1 .031.296 9.386 9.386 0 0 1-.926 1.664c-.303.447-.72.81-1.207 1.054l.003-.017zM10.775 11.88a.295.295 0 0 1-.236.005.287.287 0 0 1-.162-.168.297.297 0 0 1-.007-.238.305.305 0 0 1 .172-.169 35.808 35.808 0 0 1 3.859-1.296 38.61 38.61 0 0 1 4.064-.892.31.31 0 0 1 .351.248.3.3 0 0 1-.252.342 38.52 38.52 0 0 0-4.004.874 36.02 36.02 0 0 0-3.785 1.294zm20.943 14.04a.297.297 0 0 1-.106-.51.31.31 0 0 1 .3-.06 5.846 5.846 0 0 1 1.673.854c.43.319.814.696 1.138 1.12a.295.295 0 0 1-.061.419.309.309 0 0 1-.427-.06c-.283-.381-.62-.72-1.002-1.006a5.195 5.195 0 0 0-1.5-.758h-.015zm-12.365-.855a.307.307 0 0 1-.28-.118.294.294 0 0 1-.036-.296.303.303 0 0 1 .244-.179 39.339 39.339 0 0 1 4.439-.25c1.492 0 3.013.062 4.552.184a.303.303 0 0 1 .249.17.293.293 0 0 1-.025.296.305.305 0 0 1-.274.127 55.808 55.808 0 0 0-4.502-.182c-1.455.002-2.91.085-4.355.248h-.012zM21.58 8.073a.29.29 0 0 1-.081.283.304.304 0 0 1-.29.072.297.297 0 0 1-.21-.21l-.563-2.154a.28.28 0 0 1 .03-.23.29.29 0 0 1 .194-.132.295.295 0 0 1 .233.029c.07.04.12.11.135.188l.552 2.154zm8.332 19.147a.308.308 0 0 1 .424-.074c.138.095.172.28.075.416a32.597 32.597 0 0 1-2.99 3.775 17.317 17.317 0 0 1-4.172 3.17.305.305 0 0 1-.3-.005.294.294 0 0 1-.145-.258.294.294 0 0 1 .155-.252 16.69 16.69 0 0 0 4.018-3.065 31.791 31.791 0 0 0 2.935-3.707z" fill="#333" mask="url(#ayjod5mjsy)"/>
                </g>
            </g>
            <path d="M27.11 23.357c1.182-1.564 2.076-3.419 2.941-5.438.871.284 1.948.706 3.246 1.236a24.079 24.079 0 0 1-.627 5.735 14.116 14.116 0 0 1-3.797 2.82c-.23-1.253-.871-2.735-1.762-4.353zM7.37 13.016a13.864 13.864 0 0 1 2.902-3.582l.967.713a19.476 19.476 0 0 0-2.645 4.994 28.795 28.795 0 0 0-2.787 2.17c.277-1.51.808-2.964 1.57-4.304l-.008.009zm16.925 19.976a14.428 14.428 0 0 1-8.257.24 6.442 6.442 0 0 0 2.784-1.274c1.707.242 3.635.1 5.71-.308-.078.448-.156.895-.237 1.342zm-15.146-3.96A13.876 13.876 0 0 1 6.376 24.4l1.899 2.376.87 2.245.004.011zm7.864-20.794c.871-.792 2.062-1.362 4.065-2.103 1.872.285 3.774 1.066 5.728 2.231a5.135 5.135 0 0 1-.227 3.704 47.38 47.38 0 0 0-6.511.21c-.732-1.52-1.705-3.056-3.055-4.042zm-6.157 11.13a15.735 15.735 0 0 1 5.986-1.276c1.225 2.134 2.462 3.989 3.725 5.3-1.742 1.27-3.37 2.848-4.372 4.723-1.893-.633-3.522-1.553-5.388-2.74a12.143 12.143 0 0 1 .049-6.006z" fill="url(#t8sxhweqtz)" mask="url(#49jr6hg9tw)"/>
        </g>
    </g>
</svg>
